<?xml version="1.0" encoding="UTF-8"?>
<svg version="1.1" viewBox="0 0 2048 1104" width="306" height="165" xmlns="http://www.w3.org/2000/svg">
<path transform="translate(0)" d="m0 0h2048v1104h-2048z" fill="#FDFEFD"/>
<path transform="translate(171,59)" d="m0 0h1065l5 5 12 15 9 12 26 34 20 26 11 14 16 21 10 13 13 17 14 18 13 17 16 21 14 18 9 12 14 18 15 20 11 14 10 13 16 21 14 18 12 16 11 14 15 20 14 18 11 14 10 13 3 5-1 9-8 29-6 17-12-7-14-8-20-9-19-7-15-4-20-3-19-1h-151l-15-1-8-4-6-7-4-9-3-18v-24l2-16 5-2 16-2 1-17v-44l-2-25-4-24-7-27-8-21-11-21-10-14-8-10-5-6-8-7-11-9-15-10-21-12-17-8-23-9-19-6-20-5-35-5-12-1h-27l-24 3-21 4-27 9-16 8-12 7-11 8-10 8-15 15-12 17-8 13-7 15-7 20-6 25-4 26-1 17-10 8-15 10-17 12-40 28-33 22-1 2h140l3 6 4 14-1 6-17 36-15 33-6 16v8l52 1 6 12 5 17 3 17v23l-6 5-31 15-14 9-13 11-15 15-10 13-10 15-12 21-11 24-11 31-10 38-7 38-4 32-3 35-2 45h83l6 9 12 22 13 22 10 17v2l-8 1-108 1h-222l-356-1-22-4-17-5-16-8-14-10-12-11-9-12-8-14-6-16-3-12-1-7v-787l4-20 6-16 8-14 7-9 9-10 14-11 14-8 12-5 16-4z" fill="#051F41"/>
<path transform="translate(1414,59)" d="m0 0h469l13 2 22 6 16 8 11 7 12 11 8 9 10 16 5 11 6 19 2 10v776l-2 18-6 22-8 16-8 11-11 12-11 9-13 8-17 7-25 5-13 1-82 1h-33l-93-1v-74h153l21-1 9-2 10-5 11-8 10-9 13-15 14-21 12-21 10-22 7-21v-6l-7-12-13-15-11-13-9-14-8-16-10-25-7-12-8-8-22-12-17-10-17-12-13-10-8-8-1-3-1-38-4-7-9-10-8-6-11-3-5-4 1-10-3-9-6-8-7-8-7-3-7-1-3-3v-12l-4-10-9-11-6-5-6-2-12-1-5-3-9-14-12-20-17-28-17-29-17-28-27-45-16-27-57-95-13-22-17-28-19-32-17-28-13-22-12-20-7-11-1-5z" fill="#B61141"/>
<path transform="translate(285,733)" d="m0 0 15 1 15 4 16 8 10 8 8 8 9 14 5 13 2 8 1 15-2 14-5 15-6 11-8 10-8 8-15 9-15 5-9 2h-19l-19-5-13-7-11-9-8-9-7-11-5-13-2-10v-24l3-14 7-14 9-12 10-9 11-7 12-5 12-3z" fill="#FDFEFD"/>
<path transform="translate(1406,63)" d="m0 0 5 2 4 6 7 9 2 3v3h2l6 11 6 12 2 6h2l3 5v3h2l3 6 6 9 4 10 11 17 2 5h2v3h2l3 9 7 10 4 5 6 10 3 8 6 9v2h2l9 14 3 9 6 8 8 11 4 9 2 5 3 3 6 10 1 3h2l9 18 6 8 2 4 5 8v2h2l4 9v3h2l2 4 3 3 5 9 6 9 2 8h2l6 11v2l3 1 3 5v3h2l5 11 4 6 3 6v2h2v2h2l6 11 5 10 4 7 4 6 3 3 9 15 1 5h2v2h2l6 8 3 1v2l4-1 7 5v2l4 2 6 2 2 2 4 2 1 5h2v2l4 1 3 6v6l-2 2-9-12-7-6-6-2-12-1-5-3-9-14-12-20-17-28-17-29-17-28-27-45-16-27-57-95-13-22-17-28-19-32-17-28-13-22-12-20-4-6z" fill="#CD114C"/>
<path transform="translate(1414,59)" d="m0 0h469l13 2 22 6 16 8 11 7 12 11 8 9 8 12-2 3-7-8-6-5v-2h-2l-5-5-8-7v-2l-4-2-11-6-3-2v-2l-4-2-20-5-5-1-6-1-15-1-4-1h-53l-209 1h-82l-2-1-1 2-2-1h-20l-2-1-1 2-3-1-6 1v-2l-6 1h-18l-10 1-21 1h-5l-1-3h-2l-1 2-1-2-3-1v-4h-8z" fill="#D0114D"/>
<path transform="translate(1715,539)" d="m0 0 6 2 5 8 1 3 5 1 3 5v2h2v2l3 1 4 6v3h2l2 4v3h2l6 8 7 4 7 9 2 2 3 7 2 1 3 6v2h2l5 10-1 4 4 1 3 12 3 1 8 10 4 4 1 5-2 1v4h2l4 10 6 6v2l4 1 1 3 4 2 2 2 7 1v3h2v2h3v2l7 1 3 3 9 6 6 5v2h2l5 5 1 3h2l6 11 6 12 6 16 5 9 2 8h2v2l2 1 4 6 1 3h2l8 11 2 3v4l-4-1-10-11-10-14-8-14-13-32-7-12-8-8-22-12-17-10-17-12-13-10-8-8-1-3-1-38-4-7-9-10-8-6-11-3-5-4 1-10-3-9-6-8-7-8-7-3-7-1-3-3v-12l-1-6z" fill="#D0114D"/>
<path transform="translate(1956 1e3)" d="m0 0 2 3-8 8-14 10-16 8-16 5-17 3-13 1-82 1h-33l-24-1-2-2 10-1 40-1h25l10-1h27l28-2 24-3 1-1 8-1 9-3 17-7h2l1-2 9-5 6-4h2l1-3z" fill="#D1124E"/>
<path transform="translate(1715,539)" d="m0 0 6 2 5 8 1 3 5 1 3 5v2h2v2l3 1 4 6v3h2l2 4v3h2l6 8 7 4 7 9 2 2 3 7 2 1 3 6v2h2l5 10-2 4-4-8-11-12-7-5-11-3-5-4 1-10-3-9-6-8-7-8-7-3-7-1-3-3v-12l-1-6z" fill="#D1124E"/>
<path transform="translate(1933,854)" d="m0 0 4 3-1 7-4 13-4 9v2h-2l-2 6-3 6-3 5h-2l-1 4-4 5-6 10-1 2h-2l-2 5-5 9-4 3-1 3-5 3-9 7-3 2-8 2-2-2 11-8 8-8 9-11 11-15 12-20 8-15 10-24z" fill="#D0114D"/>
<path transform="translate(1685,970)" d="m0 0h82v1l-17 1-10 2-2-1-19 1-28 1-9-2-1-2z" fill="#D1124E"/>
<path transform="translate(1667,1027)" d="m0 0 5 1 8 9h2l-1 4-3 1h-12v-8z" fill="#D1124E"/>
</svg>
