<?xml version="1.0" encoding="UTF-8"?>
<svg version="1.1" viewBox="0 0 2048 1365" width="255" height="170" xmlns="http://www.w3.org/2000/svg">
<path transform="translate(0)" d="m0 0h2048v1365h-2048z" fill="#01267B"/>
<path transform="translate(0)" d="m0 0h2048v455h-2048z" fill="#FEC900"/>
<path transform="translate(1423,910)" d="m0 0 621 1 4 1v453h-2048v-454h112z" fill="#CD1729"/>
<path transform="translate(642,755)" d="m0 0 5 2 2 6 3 20 4 6 6 2 33 1-1 4-7 6-19 11-4 5 1 8 5 13 4 10v6l-1 2-4-1-8-6-7-7-8-7-4-2-6 1-17 12-5 4-5 2-4-2 3-9 8-19 1-9-10-7-11-8-7-6-1-5h15l22 1 5-5 3-7 4-15 4-6z" fill="#FEFDF9"/>
<path transform="translate(1403,755)" d="m0 0 5 1 4 8 3 13 5 10 1 1h37l2 1-2 5-16 12-10 7-2 2 1 7 8 17 5 10-1 4-8-1-9-7-13-10-5-1-8 4-14 13-8 5h-3l-1-7 6-14 4-16-5-6-21-13-4-4 1-4h24l13-2 3-4 2-6 3-18z" fill="#FEFDF8"/>
<path transform="translate(1102,511)" d="m0 0 4 1 2 4 2 24 2 5 8 4 28 6 3 3-3 3-29 12-2 3v10l3 12 3 9v8l-2 1-8-6-7-7-9-11-3-3-5-1-20 11-8 4h-6l-1-4 10-16 7-14-1-5-13-12-11-9-1-4 1-1h11l22 4 7-1 6-10 8-17z" fill="#FEFDF8"/>
<path transform="translate(1309,645)" d="m0 0 5 1 9 12 6 7 6 5 9-1 18-10 6-3h4l1 6-11 19-5 9 1 5 13 12 11 10 1 3-2 2h-8l-22-5h-9l-2 5-12 24-4 4-4-1-4-36-1-2-18-3-15-2-5-2 2-4 12-5 14-7 6-2v-11l-3-25z" fill="#FEFDF8"/>
<path transform="translate(797,562)" d="m0 0 5 2 14 14 7 6h7l18-10 8-5 4-1 1 5-13 26-1 7 8 6 4 5 15 11 1 4-1 1h-17l-6-1h-17l-9 20-6 12-4 2-2-3-4-34-4-2-34-2-3-3 4-4 18-11 12-7-1-7-6-21v-8z" fill="#FEFDF8"/>
<path transform="translate(737,645)" d="m0 0 2 1v11l-2 18 1 8 2 4 21 9 8 4 2 3-5 3-29 4-6 1-2 35-1 6-5-3-6-8-9-19-3-5-5-1-17 5-4 1h-13l-1-3 5-6 8-7 13-13-1-5-13-23-2-3 1-5 8 1 11 6 15 8 4-1 9-11 7-8 5-5z" fill="#FEFDF8"/>
<path transform="translate(942,510)" d="m0 0 4 2 8 14 7 13 2 4 24-5h14l2 1-2 4-5 5-8 7-11 11 1 6 6 11 6 9 5 8v2l-5 1-8-3-23-12-4 1-9 9-7 8-7 7-5 3-1-1 1-10 3-13 1-8v-10l-11-4-22-10v-4l6-2 19-3 11-4 3-3 1-2 1-19v-7z" fill="#FEFDF8"/>
<path transform="translate(1247,563)" d="m0 0h5l1 5-4 18-3 9 1 5 16 10 15 9 2 4-4 2-26 1-10 2-2 3-3 34h-4l-8-11-6-16-3-6-8-2-5 2-16 2h-8l-4-2 2-4 16-13 12-9-9-19-6-12v-5h6l14 8 10 6 8 1 12-13 7-8z" fill="#FEFDF8"/>
</svg>
